<mxfile host="app.diagrams.net" modified="2023-05-29T10:21:21.144Z" agent="Mozilla/5.0 (Macintosh; Intel Mac OS X 10_15_7) AppleWebKit/537.36 (KHTML, like Gecko) Chrome/113.0.0.0 Safari/537.36" etag="HF23B-EvZyhch_VtpvKB" version="21.3.5" type="github">
  <diagram name="第 1 页" id="9iZRizX3N21t1pR2slK-">
    <mxGraphModel dx="276" dy="153" grid="1" gridSize="10" guides="1" tooltips="1" connect="1" arrows="1" fold="1" page="1" pageScale="1" pageWidth="827" pageHeight="1169" math="0" shadow="0">
      <root>
        <mxCell id="0" />
        <mxCell id="1" parent="0" />
        <mxCell id="0Aem7aCA6XUBFZICTMyG-1" value="&lt;font style=&quot;font-size: 16px;&quot;&gt;Single-Shot Pruning and Quantization for&amp;nbsp;Hardware-friendly&lt;/font&gt;" style="swimlane;whiteSpace=wrap;html=1;" vertex="1" parent="1">
          <mxGeometry x="460" y="150" width="470" height="460" as="geometry" />
        </mxCell>
        <mxCell id="0Aem7aCA6XUBFZICTMyG-22" value="" style="group;movable=1;resizable=1;rotatable=1;deletable=1;editable=1;locked=0;connectable=1;" vertex="1" connectable="0" parent="1">
          <mxGeometry x="160" y="203" width="150" height="317" as="geometry" />
        </mxCell>
        <mxCell id="0Aem7aCA6XUBFZICTMyG-16" value="" style="group;textOpacity=10;movable=1;resizable=1;rotatable=1;deletable=1;editable=1;locked=0;connectable=1;" vertex="1" connectable="0" parent="0Aem7aCA6XUBFZICTMyG-22">
          <mxGeometry width="150" height="317" as="geometry" />
        </mxCell>
        <mxCell id="0Aem7aCA6XUBFZICTMyG-2" value="" style="html=1;whiteSpace=wrap;shape=isoCube2;backgroundOutline=1;isoAngle=15;movable=1;resizable=1;rotatable=1;deletable=1;editable=1;locked=0;connectable=1;" vertex="1" parent="0Aem7aCA6XUBFZICTMyG-16">
          <mxGeometry width="150" height="317" as="geometry" />
        </mxCell>
        <mxCell id="0Aem7aCA6XUBFZICTMyG-6" value="" style="endArrow=none;html=1;rounded=0;entryX=0.496;entryY=0.351;entryDx=0;entryDy=0;entryPerimeter=0;movable=1;resizable=1;rotatable=1;deletable=1;editable=1;locked=0;connectable=1;" edge="1" parent="0Aem7aCA6XUBFZICTMyG-16" target="0Aem7aCA6XUBFZICTMyG-2">
          <mxGeometry width="50" height="50" relative="1" as="geometry">
            <mxPoint y="77" as="sourcePoint" />
            <mxPoint x="75" y="117" as="targetPoint" />
          </mxGeometry>
        </mxCell>
        <mxCell id="0Aem7aCA6XUBFZICTMyG-12" value="" style="endArrow=none;html=1;rounded=0;entryX=0.507;entryY=0.355;entryDx=0;entryDy=0;entryPerimeter=0;movable=1;resizable=1;rotatable=1;deletable=1;editable=1;locked=0;connectable=1;" edge="1" parent="0Aem7aCA6XUBFZICTMyG-16">
          <mxGeometry width="50" height="50" relative="1" as="geometry">
            <mxPoint y="117" as="sourcePoint" />
            <mxPoint x="76" y="153" as="targetPoint" />
          </mxGeometry>
        </mxCell>
        <mxCell id="0Aem7aCA6XUBFZICTMyG-13" value="" style="endArrow=none;html=1;rounded=0;entryX=0.496;entryY=0.608;entryDx=0;entryDy=0;entryPerimeter=0;movable=1;resizable=1;rotatable=1;deletable=1;editable=1;locked=0;connectable=1;" edge="1" parent="0Aem7aCA6XUBFZICTMyG-16" target="0Aem7aCA6XUBFZICTMyG-2">
          <mxGeometry width="50" height="50" relative="1" as="geometry">
            <mxPoint y="158" as="sourcePoint" />
            <mxPoint x="76" y="194" as="targetPoint" />
          </mxGeometry>
        </mxCell>
        <mxCell id="0Aem7aCA6XUBFZICTMyG-14" value="" style="endArrow=none;html=1;rounded=0;entryX=0.496;entryY=0.73;entryDx=0;entryDy=0;entryPerimeter=0;movable=1;resizable=1;rotatable=1;deletable=1;editable=1;locked=0;connectable=1;" edge="1" parent="0Aem7aCA6XUBFZICTMyG-16" target="0Aem7aCA6XUBFZICTMyG-2">
          <mxGeometry width="50" height="50" relative="1" as="geometry">
            <mxPoint x="1" y="197" as="sourcePoint" />
            <mxPoint x="77" y="233" as="targetPoint" />
          </mxGeometry>
        </mxCell>
        <mxCell id="0Aem7aCA6XUBFZICTMyG-15" value="" style="endArrow=none;html=1;rounded=0;entryX=0.493;entryY=0.86;entryDx=0;entryDy=0;entryPerimeter=0;movable=1;resizable=1;rotatable=1;deletable=1;editable=1;locked=0;connectable=1;" edge="1" parent="0Aem7aCA6XUBFZICTMyG-16" target="0Aem7aCA6XUBFZICTMyG-2">
          <mxGeometry width="50" height="50" relative="1" as="geometry">
            <mxPoint x="1" y="238" as="sourcePoint" />
            <mxPoint x="77" y="274" as="targetPoint" />
          </mxGeometry>
        </mxCell>
        <mxCell id="0Aem7aCA6XUBFZICTMyG-17" value="" style="endArrow=none;html=1;rounded=0;entryX=1;entryY=0.244;entryDx=0;entryDy=0;entryPerimeter=0;movable=1;resizable=1;rotatable=1;deletable=1;editable=1;locked=0;connectable=1;" edge="1" parent="0Aem7aCA6XUBFZICTMyG-16" target="0Aem7aCA6XUBFZICTMyG-2">
          <mxGeometry width="50" height="50" relative="1" as="geometry">
            <mxPoint x="74" y="112" as="sourcePoint" />
            <mxPoint x="124" y="62" as="targetPoint" />
          </mxGeometry>
        </mxCell>
        <mxCell id="0Aem7aCA6XUBFZICTMyG-18" value="" style="endArrow=none;html=1;rounded=0;movable=1;resizable=1;rotatable=1;deletable=1;editable=1;locked=0;connectable=1;" edge="1" parent="0Aem7aCA6XUBFZICTMyG-22">
          <mxGeometry width="50" height="50" relative="1" as="geometry">
            <mxPoint x="75" y="153" as="sourcePoint" />
            <mxPoint x="150" y="117" as="targetPoint" />
          </mxGeometry>
        </mxCell>
        <mxCell id="0Aem7aCA6XUBFZICTMyG-19" value="" style="endArrow=none;html=1;rounded=0;entryX=1;entryY=0.244;entryDx=0;entryDy=0;entryPerimeter=0;movable=1;resizable=1;rotatable=1;deletable=1;editable=1;locked=0;connectable=1;" edge="1" parent="0Aem7aCA6XUBFZICTMyG-22">
          <mxGeometry width="50" height="50" relative="1" as="geometry">
            <mxPoint x="74" y="193" as="sourcePoint" />
            <mxPoint x="150" y="158" as="targetPoint" />
          </mxGeometry>
        </mxCell>
        <mxCell id="0Aem7aCA6XUBFZICTMyG-20" value="" style="endArrow=none;html=1;rounded=0;entryX=1;entryY=0.244;entryDx=0;entryDy=0;entryPerimeter=0;movable=1;resizable=1;rotatable=1;deletable=1;editable=1;locked=0;connectable=1;" edge="1" parent="0Aem7aCA6XUBFZICTMyG-22">
          <mxGeometry width="50" height="50" relative="1" as="geometry">
            <mxPoint x="74" y="231" as="sourcePoint" />
            <mxPoint x="150" y="196" as="targetPoint" />
          </mxGeometry>
        </mxCell>
        <mxCell id="0Aem7aCA6XUBFZICTMyG-21" value="" style="endArrow=none;html=1;rounded=0;entryX=1;entryY=0.244;entryDx=0;entryDy=0;entryPerimeter=0;movable=1;resizable=1;rotatable=1;deletable=1;editable=1;locked=0;connectable=1;" edge="1" parent="0Aem7aCA6XUBFZICTMyG-22">
          <mxGeometry width="50" height="50" relative="1" as="geometry">
            <mxPoint x="74" y="273" as="sourcePoint" />
            <mxPoint x="150" y="238" as="targetPoint" />
          </mxGeometry>
        </mxCell>
        <mxCell id="0Aem7aCA6XUBFZICTMyG-26" value="" style="html=1;shape=mxgraph.basic.isocube;isoAngle=15;fillColor=#fff2cc;strokeColor=#d6b656;" vertex="1" parent="1">
          <mxGeometry x="60" y="574" width="80" height="50" as="geometry" />
        </mxCell>
        <mxCell id="0Aem7aCA6XUBFZICTMyG-27" value="" style="html=1;shape=mxgraph.basic.isocube;isoAngle=15;fillColor=#fff2cc;strokeColor=#d6b656;" vertex="1" parent="1">
          <mxGeometry x="60" y="541" width="80" height="72" as="geometry" />
        </mxCell>
        <mxCell id="0Aem7aCA6XUBFZICTMyG-28" value="" style="html=1;shape=mxgraph.basic.isocube;isoAngle=15;fillColor=#fff2cc;strokeColor=#d6b656;" vertex="1" parent="1">
          <mxGeometry x="60" y="530" width="80" height="50" as="geometry" />
        </mxCell>
        <mxCell id="0Aem7aCA6XUBFZICTMyG-29" value="" style="html=1;shape=mxgraph.basic.isocube;isoAngle=15;fillColor=#fff2cc;strokeColor=#d6b656;" vertex="1" parent="1">
          <mxGeometry x="60" y="519" width="80" height="50" as="geometry" />
        </mxCell>
        <mxCell id="0Aem7aCA6XUBFZICTMyG-30" value="" style="endArrow=none;dashed=1;html=1;dashPattern=1 3;strokeWidth=2;rounded=0;fillColor=#fff2cc;strokeColor=#000000;" edge="1" parent="1">
          <mxGeometry width="50" height="50" relative="1" as="geometry">
            <mxPoint x="80" y="595" as="sourcePoint" />
            <mxPoint x="80" y="575" as="targetPoint" />
          </mxGeometry>
        </mxCell>
      </root>
    </mxGraphModel>
  </diagram>
</mxfile>
